<?xml version="1.0" encoding="utf-8"?>
<!-- Generator: Adobe Illustrator 27.8.0, SVG Export Plug-In . SVG Version: 6.00 Build 0)  -->
<svg version="1.1" id="图层_1" xmlns="http://www.w3.org/2000/svg" xmlns:xlink="http://www.w3.org/1999/xlink" x="0px" y="0px"
	 viewBox="0 0 1000 1000" style="enable-background:new 0 0 1000 1000;" xml:space="preserve">
<style type="text/css">
	.st0{fill:url(#SVGID_1_);}
	.st1{fill:url(#SVGID_00000057835422399074929960000005436558473449316255_);}
	.st2{fill:url(#SVGID_00000055667970629217720850000014358915011707493027_);}
	.st3{fill:url(#SVGID_00000011728543994574937910000007086670998784664747_);}
	.st4{fill:url(#SVGID_00000124865483631823116890000016079576775390433932_);}
	.st5{fill:url(#SVGID_00000166639125895284930050000006727661676440484486_);}
	.st6{fill:url(#SVGID_00000044172164868979795560000008457489323007756478_);}
	.st7{fill:url(#SVGID_00000023994388573465828870000016967716965702570937_);}
	.st8{fill:url(#SVGID_00000011737843846754325720000008788469634476282041_);}
	.st9{fill:url(#SVGID_00000101803214670746417190000009099256437775208842_);}
</style>
<g transform="translate(197.64199335482053,306.6510367933764)translate(193.15093040439314,193.15093040439302)rotate(44.750074520745436)translate(-193.15093040439314,-193.15093040439302) scale(3.893426267234968,3.893426267234968)">
	
		<linearGradient id="SVGID_1_" gradientUnits="userSpaceOnUse" x1="-7.8162" y1="301.407" x2="-7.8162" y2="300.407" gradientTransform="matrix(-234.6805 -0.6977 -1.0237 159.9326 -1481.5923 -48119.4922)">
		<stop  offset="0" style="stop-color:#9598EF"/>
		<stop  offset="1" style="stop-color:#6366F2"/>
	</linearGradient>
	<path class="st0" d="M99.1,78.7c0,11.3-9.2,20.5-20.5,20.5H57.2c-8.8-3.8-16.7-9.2-17.2-18.2l0.2-8.8c-0.5-5.3-1.9-10.7-1-14.1
		l1.5,0.1l38,0C89.9,58.2,99.1,67.3,99.1,78.7z"/>
	
		<linearGradient id="SVGID_00000151541357677915471620000012067977984886180741_" gradientUnits="userSpaceOnUse" x1="-8.0289" y1="301.5869" x2="-8.0289" y2="300.5869" gradientTransform="matrix(-159.5706 -1.0236 -0.6961 234.6584 -1062.8486 -70723.1641)">
		<stop  offset="0" style="stop-color:#6366F2"/>
		<stop  offset="1" style="stop-color:#05ACF1"/>
	</linearGradient>
	<path style="fill:url(#SVGID_00000151541357677915471620000012067977984886180741_);" d="M41,20.5l0,37.7c0,0,0,0,0,0l0,2.1
		l-22.3-0.8c-9.5-0.3-18-11.4-18.6-17.7L0,41.4l0-20.9C0,9.2,9.2,0,20.5,0C31.8,0,41,9.2,41,20.5z"/>
	
		<linearGradient id="SVGID_00000071518609973054738520000000192292096648531115_" gradientUnits="userSpaceOnUse" x1="-268.5613" y1="105.8603" x2="-268.5613" y2="104.8603" gradientTransform="matrix(-0.3465 -1.698395e-03 -1.511555e-03 0.3893 -51.9023 16.4847)">
		<stop  offset="0" style="stop-color:#6366F2"/>
		<stop  offset="1" style="stop-color:#05ACF1"/>
	</linearGradient>
	<polygon style="fill:url(#SVGID_00000071518609973054738520000000192292096648531115_);" points="41,58.2 41.1,58.2 41,58.2 
		41,58.1 	"/>
	
		<linearGradient id="SVGID_00000123427159145266992030000006948421850528269976_" gradientUnits="userSpaceOnUse" x1="-7.8504" y1="301.5599" x2="-7.8504" y2="300.5599" gradientTransform="matrix(-223.8348 -0.9847 -0.9764 225.7465 -1454.2722 -67993.1641)">
		<stop  offset="0" style="stop-color:#6366F2"/>
		<stop  offset="1" style="stop-color:#05ACF1"/>
	</linearGradient>
	<path style="fill:url(#SVGID_00000123427159145266992030000006948421850528269976_);" d="M57.6,99.1h-0.2
		c-8.8-3.8-15.8-9.9-16.3-18.9V72c-0.5-5.3-0.9-10.4,0-13.8v0H19C9.6,57.9,0.7,48.1,0.1,41.8l0-0.7h0c0,0.1,0,0.3,0,0.5
		c0,0.1,0,0.1,0,0.2c0.3,3.1,2.7,7.1,6.1,10.3c2.3,2.1,6.9,5.7,12.7,5.9h22v0.1h0.1v0.1c-0.9,3.4-0.5,8.9,0,13.8v8.2
		c0.6,10,9.2,15.8,16.3,18.8L57.6,99.1z"/>
	
		<linearGradient id="SVGID_00000162338700830895124520000000649099515452400271_" gradientUnits="userSpaceOnUse" x1="-7.8518" y1="301.5599" x2="-7.8518" y2="300.5599" gradientTransform="matrix(-223.0912 -0.9848 -0.9732 225.7504 -1449.801 -67994.3438)">
		<stop  offset="0" style="stop-color:#6366F2"/>
		<stop  offset="1" style="stop-color:#05ACF1"/>
	</linearGradient>
	<path style="fill:url(#SVGID_00000162338700830895124520000000649099515452400271_);" d="M41,80.2v-22v0H19
		C9.6,57.9,0.7,48.1,0.1,41.8l0-0.7H0l0.2,41.8c0,6.1,3.4,11.4,8.3,14.2c2.3,1.2,4.9,1.9,7.7,1.9l21.5,0.1l18.1,0.1h1.5
		C48.5,95.3,41.5,89.3,41,80.2z"/>
</g>
<g transform="translate(802.8915979441169,306.6510367933764)translate(-193.15093040439314,193.15093040439302)rotate(314.6159020453137)translate(193.15093040439314,-193.15093040439302) scale(-3.893426267234968,3.893426267234968)">
	
		<linearGradient id="SVGID_00000020376689340843755480000010616895734049480082_" gradientUnits="userSpaceOnUse" x1="341.8109" y1="-47.7236" x2="341.8109" y2="-48.7236" gradientTransform="matrix(2.5227 159.9249 -234.6691 1.7192 -12017.0488 -54490.9766)">
		<stop  offset="0" style="stop-color:#0FB9D7"/>
		<stop  offset="0.7571" style="stop-color:#9ECE6B"/>
	</linearGradient>
	<path style="fill:url(#SVGID_00000020376689340843755480000010616895734049480082_);" d="M99.1,78.7c0,11.3-9.2,20.5-20.5,20.5
		H57.2c-8.8-3.8-16.7-9.2-17.2-18.2l0.2-8.8c-0.5-5.3-1.9-10.7-1-14.1l1.5,0.1l38,0C89.9,58.2,99.1,67.3,99.1,78.7z"/>
	
		<linearGradient id="SVGID_00000036941467001137094580000008860682903439766660_" gradientUnits="userSpaceOnUse" x1="341.7686" y1="-48.4046" x2="341.7686" y2="-49.4046" gradientTransform="matrix(-158.8062 22.9637 -15.6156 -233.5344 53523.8984 -19141.6855)">
		<stop  offset="0" style="stop-color:#00EFC8"/>
		<stop  offset="1" style="stop-color:#2C94EA"/>
	</linearGradient>
	<path style="fill:url(#SVGID_00000036941467001137094580000008860682903439766660_);" d="M41,20.5l0,37.7c0,0,0,0,0,0l0,2.1
		l-22.3-0.8c-9.5-0.3-18-11.4-18.6-17.7L0,41.4l0-20.9C0,9.2,9.2,0,20.5,0C31.8,0,41,9.2,41,20.5z"/>
	
		<linearGradient id="SVGID_00000068655217246365583530000013708668875376939936_" gradientUnits="userSpaceOnUse" x1="581.5035" y1="-259.2369" x2="581.5035" y2="-260.2369" gradientTransform="matrix(-0.3449 3.810162e-02 -3.390995e-02 -0.3875 232.7207 -64.4911)">
		<stop  offset="0" style="stop-color:#00EFC8"/>
		<stop  offset="1" style="stop-color:#2C94EA"/>
	</linearGradient>
	<polygon style="fill:url(#SVGID_00000068655217246365583530000013708668875376939936_);" points="41,58.2 41.1,58.2 41,58.2 
		41,58.1 	"/>
	
		<linearGradient id="SVGID_00000016792901549391669480000009799054848144102050_" gradientUnits="userSpaceOnUse" x1="341.6189" y1="-48.4173" x2="341.6189" y2="-49.4173" gradientTransform="matrix(-222.7626 22.0916 -21.9045 -224.6651 75049.3125 -18377.0098)">
		<stop  offset="0" style="stop-color:#00EFC8"/>
		<stop  offset="1" style="stop-color:#2C94EA"/>
	</linearGradient>
	<path style="fill:url(#SVGID_00000016792901549391669480000009799054848144102050_);" d="M57.6,99.1h-0.2
		c-8.8-3.8-15.8-9.9-16.3-18.9V72c-0.5-5.3-0.9-10.4,0-13.8v0l-22,0C9.6,57.9,0.7,48.1,0.1,41.8l0-0.7h0c0,0.1,0,0.3,0,0.5
		c0,0.1,0,0.1,0,0.2c0.3,3.1,2.7,7.1,6.1,10.3c2.3,2.1,6.9,5.7,12.7,5.9l22,0v0.1h0.1v0.1c-0.9,3.4-0.5,8.9,0,13.8v8.2
		c0.6,10,9.2,15.8,16.3,18.8L57.6,99.1z"/>
	
		<linearGradient id="SVGID_00000051382776976186392070000013339905821363547287_" gradientUnits="userSpaceOnUse" x1="341.6636" y1="-48.4614" x2="341.6636" y2="-49.4614" gradientTransform="matrix(-222.0225 22.092 -21.8317 -224.669 74800.1719 -18377.3281)">
		<stop  offset="0" style="stop-color:#00EFC8"/>
		<stop  offset="1" style="stop-color:#2C94EA"/>
	</linearGradient>
	<path style="fill:url(#SVGID_00000051382776976186392070000013339905821363547287_);" d="M41,80.2l0-22v0l-22,0
		C9.6,57.9,0.7,48.1,0.1,41.8l0-0.7H0l0.2,41.8c0,6.1,3.4,11.4,8.4,14.2c2.3,1.2,4.9,1.9,7.7,1.9l21.5,0.1l18.1,0.1h1.5
		C48.5,95.3,41.5,89.3,41,80.2z"/>
</g>
</svg>
