<svg xmlns="http://www.w3.org/2000/svg" width="1000" height="1000" viewBox="0 0 1000 1000"><rect x="0" y="0" width="1000" height="1000" fill="#FFFFFF"/><g transform="translate(151.29103661324024,685.6995971133513)translate(352.95450895608434,111.60441228069487)rotate(0)translate(-352.95450895608434,-111.60441228069487)" opacity="1"><path transform="translate(55,68.51525794903512)rotate(0)" d="M1.85-58.96L1.85-66.43L68.28-66.43L68.28-58.96L38.84-58.96L38.84 0L31.37 0L31.37-58.96L1.85-58.96ZM86.09-66.43L86.09-66.43L130.37-66.43L130.37-66.43Q134.99-66.43 138.22-63.20L138.22-63.20L138.22-63.20Q141.45-59.97 141.45-55.36L141.45-55.36L141.45-11.07L141.45-11.07Q141.45-6.46 138.22-3.23L138.22-3.23L138.22-3.23Q134.99 0 130.37 0L130.37 0L86.09 0L86.09 0Q81.47 0 78.24-3.23L78.24-3.23L78.24-3.23Q75.01-6.46 75.01-11.07L75.01-11.07L75.01-55.36L75.01-55.36Q75.01-59.97 78.24-63.20L78.24-63.20L78.24-63.20Q81.47-66.43 86.09-66.43ZM86.09-7.47L86.09-7.47L130.37-7.47L130.37-7.47Q131.85-7.47 132.91-8.53L132.91-8.53L132.91-8.53Q133.97-9.60 133.97-11.07L133.97-11.07L133.97-55.36L133.97-55.36Q133.97-56.84 132.91-57.90L132.91-57.90L132.91-57.90Q131.85-58.96 130.37-58.96L130.37-58.96L86.09-58.96L86.09-58.96Q84.61-58.96 83.55-57.90L83.55-57.90L83.55-57.90Q82.49-56.84 82.49-55.36L82.49-55.36L82.49-11.07L82.49-11.07Q82.49-9.60 83.55-8.53L83.55-8.53L83.55-8.53Q84.61-7.47 86.09-7.47ZM151.60 0L151.60-66.34L206.96-66.34L206.96-66.34Q211.57-66.34 214.80-63.11L214.80-63.11L214.80-63.11Q218.03-59.88 218.03-55.27L218.03-55.27L218.03-35.80L218.03-35.80Q218.03-31.19 214.80-27.96L214.80-27.96L214.80-27.96Q211.57-24.73 206.96-24.73L206.96-24.73L162.67-24.73L162.67-24.73Q161.84-24.73 159.07-25.10L159.07-25.10L159.07 0L151.60 0ZM210.55-35.80L210.55-35.80L210.55-55.27L210.55-55.27Q210.55-56.74 209.49-57.81L209.49-57.81L209.49-57.81Q208.43-58.87 206.96-58.87L206.96-58.87L162.67-58.87L162.67-58.87Q161.19-58.87 160.13-57.81L160.13-57.81L160.13-57.81Q159.07-56.74 159.07-55.27L159.07-55.27L159.07-35.80L159.07-35.80Q159.07-34.32 160.13-33.31L160.13-33.31L160.13-33.31Q161.19-32.29 162.67-32.29L162.67-32.29L206.96-32.29L206.96-32.29Q208.43-32.29 209.49-33.31L209.49-33.31L209.49-33.31Q210.55-34.32 210.55-35.80ZM290.83-66.43L290.83-58.96L235.65-58.96L235.65-58.96Q234.18-58.96 233.11-57.90L233.11-57.90L233.11-57.90Q232.05-56.84 232.05-55.36L232.05-55.36L232.05-11.07L232.05-11.07Q232.05-9.60 233.11-8.53L233.11-8.53L233.11-8.53Q234.18-7.47 235.65-7.47L235.65-7.47L290.83-7.47L290.83 0L235.65 0L235.65 0Q231.04 0 227.81-3.23L227.81-3.23L227.81-3.23Q224.58-6.46 224.58-11.07L224.58-11.07L224.58-55.36L224.58-55.36Q224.58-59.97 227.81-63.20L227.81-63.20L227.81-63.20Q231.04-66.43 235.65-66.43L235.65-66.43L290.83-66.43ZM311.31-66.43L311.31-66.43L355.60-66.43L355.60-66.43Q360.21-66.43 363.44-63.20L363.44-63.20L363.44-63.20Q366.67-59.97 366.67-55.36L366.67-55.36L366.67-11.07L366.67-11.07Q366.67-6.46 363.44-3.23L363.44-3.23L363.44-3.23Q360.21 0 355.60 0L355.60 0L311.31 0L311.31 0Q306.70 0 303.47-3.23L303.47-3.23L303.47-3.23Q300.24-6.46 300.24-11.07L300.24-11.07L300.24-55.36L300.24-55.36Q300.24-59.97 303.47-63.20L303.47-63.20L303.47-63.20Q306.70-66.43 311.31-66.43ZM311.31-7.47L311.31-7.47L355.60-7.47L355.60-7.47Q357.08-7.47 358.14-8.53L358.14-8.53L358.14-8.53Q359.20-9.60 359.20-11.07L359.20-11.07L359.20-55.36L359.20-55.36Q359.20-56.84 358.14-57.90L358.14-57.90L358.14-57.90Q357.08-58.96 355.60-58.96L355.60-58.96L311.31-58.96L311.31-58.96Q309.83-58.96 308.77-57.90L308.77-57.90L308.77-57.90Q307.71-56.84 307.71-55.36L307.71-55.36L307.71-11.07L307.71-11.07Q307.71-9.60 308.77-8.53L308.77-8.53L308.77-8.53Q309.83-7.47 311.31-7.47ZM377.01 0L377.01-66.43L432.37-66.43L432.37-66.43Q436.98-66.43 440.21-63.20L440.21-63.20L440.21-63.20Q443.44-59.97 443.44-55.36L443.44-55.36L443.44-11.07L443.44-11.07Q443.44-6.46 440.21-3.23L440.21-3.23L440.21-3.23Q436.98 0 432.37 0L432.37 0L377.01 0ZM435.96-11.07L435.96-11.07L435.96-55.36L435.96-55.36Q435.96-56.84 434.90-57.90L434.90-57.90L434.90-57.90Q433.84-58.96 432.37-58.96L432.37-58.96L388.08-58.96L388.08-58.96Q386.60-58.96 385.54-57.90L385.54-57.90L385.54-57.90Q384.48-56.84 384.48-55.36L384.48-55.36L384.48-11.07L384.48-11.07Q384.48-9.60 385.54-8.53L385.54-8.53L385.54-8.53Q386.60-7.47 388.08-7.47L388.08-7.47L432.37-7.47L432.37-7.47Q433.84-7.47 434.90-8.53L434.90-8.53L434.90-8.53Q435.96-9.60 435.96-11.07ZM453.96-66.43L514.58-66.43L514.58-58.96L461.43-58.96L461.43-37.00L504.15-37.00L504.15-29.43L461.43-29.43L461.43-7.47L514.58-7.47L514.58 0L453.96 0L453.96-66.43ZM590.79-55.27L590.79-55.27L590.79-35.80L590.79-35.80Q590.79-31.19 587.56-27.96L587.56-27.96L587.56-27.96Q584.33-24.73 579.72-24.73L579.72-24.73L569.57-24.73L590.42 0L580.55 0L559.79-24.73L535.43-24.73L535.43-24.73Q534.60-24.73 531.83-25.10L531.83-25.10L531.83 0L524.36 0L524.36-66.34L579.72-66.34L579.72-66.34Q584.33-66.34 587.56-63.11L587.56-63.11L587.56-63.11Q590.79-59.88 590.79-55.27ZM535.43-32.29L535.43-32.29L579.72-32.29L579.72-32.29Q581.19-32.29 582.21-33.31L582.21-33.31L582.21-33.31Q583.22-34.32 583.22-35.80L583.22-35.80L583.22-55.27L583.22-55.27Q583.22-56.74 582.21-57.81L582.21-57.81L582.21-57.81Q581.19-58.87 579.72-58.87L579.72-58.87L535.43-58.87L535.43-58.87Q533.95-58.87 532.89-57.81L532.89-57.81L532.89-57.81Q531.83-56.74 531.83-55.27L531.83-55.27L531.83-35.80L531.83-35.80Q531.83-34.32 532.89-33.31L532.89-33.31L532.89-33.31Q533.95-32.29 535.43-32.29Z" fill="#3e485b"/><path transform="translate(23,179.18713294903512)rotate(0)" d="M5.35 0L5.35-66.43L65.97-66.43L65.97-58.96L12.83-58.96L12.83-37.00L55.55-37.00L55.55-29.43L12.83-29.43L12.83 0L5.35 0ZM130.65-11.07L130.65-11.07L130.65-66.43L138.12-66.43L138.12-11.07L138.12-11.07Q138.12-6.46 134.90-3.23L134.90-3.23L134.90-3.23Q131.67 0 127.05 0L127.05 0L82.76 0L82.76 0Q78.15 0 74.92-3.23L74.92-3.23L74.92-3.23Q71.69-6.46 71.69-11.07L71.69-11.07L71.69-66.43L79.17-66.43L79.17-11.07L79.17-11.07Q79.17-9.60 80.23-8.53L80.23-8.53L80.23-8.53Q81.29-7.47 82.76-7.47L82.76-7.47L127.05-7.47L127.05-7.47Q128.53-7.47 129.59-8.53L129.59-8.53L129.59-8.53Q130.65-9.60 130.65-11.07ZM214.80 0L148.37 0L148.37-66.53L155.84-66.53L155.84-7.47L214.80-7.47L214.80 0ZM286.68 0L220.24 0L220.24-66.53L227.72-66.53L227.72-7.47L286.68-7.47L286.68 0ZM358.00-55.36L358.00-55.36L358.00-52.78L350.52-52.78L350.52-55.36L350.52-55.36Q350.52-56.84 349.46-57.90L349.46-57.90L349.46-57.90Q348.40-58.96 346.93-58.96L346.93-58.96L302.64-58.96L302.64-58.96Q301.16-58.96 300.10-57.90L300.10-57.90L300.10-57.90Q299.04-56.84 299.04-55.36L299.04-55.36L299.04-40.51L299.04-40.51Q299.04-39.03 300.10-38.01L300.10-38.01L300.10-38.01Q301.16-37.00 302.64-37.00L302.64-37.00L346.93-37.00L346.93-37.00Q351.54-37.00 354.77-33.77L354.77-33.77L354.77-33.77Q358.00-30.54 358.00-25.93L358.00-25.93L358.00-11.07L358.00-11.07Q358.00-6.46 354.77-3.23L354.77-3.23L354.77-3.23Q351.54 0 346.93 0L346.93 0L302.64 0L302.64 0Q298.02 0 294.80-3.23L294.80-3.23L294.80-3.23Q291.57-6.46 291.57-11.07L291.57-11.07L291.57-13.66L299.04-13.66L299.04-11.07L299.04-11.07Q299.04-9.60 300.10-8.53L300.10-8.53L300.10-8.53Q301.16-7.47 302.64-7.47L302.64-7.47L346.93-7.47L346.93-7.47Q348.40-7.47 349.46-8.53L349.46-8.53L349.46-8.53Q350.52-9.60 350.52-11.07L350.52-11.07L350.52-25.93L350.52-25.93Q350.52-27.40 349.46-28.42L349.46-28.42L349.46-28.42Q348.40-29.43 346.93-29.43L346.93-29.43L302.64-29.43L302.64-29.43Q298.02-29.43 294.80-32.66L294.80-32.66L294.80-32.66Q291.57-35.89 291.57-40.51L291.57-40.51L291.57-55.36L291.57-55.36Q291.57-59.97 294.80-63.20L294.80-63.20L294.80-63.20Q298.02-66.43 302.64-66.43L302.64-66.43L346.93-66.43L346.93-66.43Q351.54-66.43 354.77-63.20L354.77-63.20L354.77-63.20Q358.00-59.97 358.00-55.36ZM364.55-58.96L364.55-66.43L430.98-66.43L430.98-58.96L401.55-58.96L401.55 0L394.08 0L394.08-58.96L364.55-58.96ZM449.16-66.43L449.16-66.43L493.45-66.43L493.45-66.43Q498.06-66.43 501.29-63.20L501.29-63.20L501.29-63.20Q504.52-59.97 504.52-55.36L504.52-55.36L504.52 0L497.05 0L497.05-24.27L445.56-24.27L445.56 0L438.09 0L438.09-55.36L438.09-55.36Q438.09-59.97 441.32-63.20L441.32-63.20L441.32-63.20Q444.55-66.43 449.16-66.43ZM445.56-55.36L445.56-31.74L497.05-31.74L497.05-55.36L497.05-55.36Q497.05-56.84 495.98-57.90L495.98-57.90L495.98-57.90Q494.92-58.96 493.45-58.96L493.45-58.96L449.16-58.96L449.16-58.96Q447.68-58.96 446.62-57.90L446.62-57.90L446.62-57.90Q445.56-56.84 445.56-55.36L445.56-55.36ZM581.29-66.43L581.29-58.96L526.11-58.96L526.11-58.96Q524.63-58.96 523.57-57.90L523.57-57.90L523.57-57.90Q522.51-56.84 522.51-55.36L522.51-55.36L522.51-11.07L522.51-11.07Q522.51-9.60 523.57-8.53L523.57-8.53L523.57-8.53Q524.63-7.47 526.11-7.47L526.11-7.47L581.29-7.47L581.29 0L526.11 0L526.11 0Q521.50 0 518.27-3.23L518.27-3.23L518.27-3.23Q515.04-6.46 515.04-11.07L515.04-11.07L515.04-55.36L515.04-55.36Q515.04-59.97 518.27-63.20L518.27-63.20L518.27-63.20Q521.50-66.43 526.11-66.43L526.11-66.43L581.29-66.43ZM619.95-37.00L644.67-66.43L654.27-66.43L626.50-33.22L654.36 0L644.67 0L619.95-29.43L598.54-29.43L598.54 0L590.97 0L590.97-66.43L598.54-66.43L598.54-37.00L619.95-37.00Z" fill="#3e485b"/></g><g transform="translate(197.6419933548205,171.957159242356)translate(193.15093040439314,193.15093040439302)rotate(44.750074520745436)translate(-193.15093040439314,-193.15093040439302) scale(3.893426267234968,3.893426267234968)" opacity="1"><defs class="defs"><linearGradient id="linearGradientd2a31d94048d6765fe5d8af0233aef18" class="linearGradient1" gradientTransform="translate(0.5,0.5) rotate(225) translate(-0.5,-0.5)" x1="50%" y1="0%" x2="50%" y2="100%"><stop id="stop1" offset="0%" class="linearGradientColor1" stop-color="#9598ef"/><stop id="stop2" offset="100%" class="linearGradientColor2" stop-color="#6366f2"/></linearGradient><linearGradient id="linearGradientdcbab33b96eacea34f246edee7e811b3" class="linearGradient2" gradientTransform="translate(0.5,0.5) rotate(225) translate(-0.5,-0.5)" x1="50%" y1="0%" x2="50%" y2="100%"><stop id="stop1" offset="0%" class="linearGradientColor1" stop-color="#6366f2"/><stop id="stop2" offset="100%" class="linearGradientColor2" stop-color="#05acf1"/></linearGradient><linearGradient id="linearGradient0a2d46bf9dc2f9b22fa746ccc05fb214" class="linearGradient3" gradientTransform="translate(0.5,0.5) rotate(225) translate(-0.5,-0.5)" x1="50%" y1="0%" x2="50%" y2="100%"><stop id="stop1" offset="0%" class="linearGradientColor1" stop-color="#6366f2"/><stop id="stop2" offset="100%" class="linearGradientColor2" stop-color="#05acf1"/></linearGradient></defs><path fill="url(#linearGradientd2a31d94048d6765fe5d8af0233aef18)" d="M99.092,78.668c0,11.312-9.17,20.48-20.48,20.48H57.172c-8.771-3.812-16.669-9.216-17.229-18.244l0.167-8.75&#10;&#9;c-0.53-5.35-1.89-10.724-1-14.084l1.508,0.107l37.994-0.002C89.922,58.177,99.092,67.347,99.092,78.668z" class="color c1"/><path fill="url(#linearGradientdcbab33b96eacea34f246edee7e811b3)" d="M40.985,20.492v37.68c-0.01,0.012-0.01,0.012-0.01,0.021l-0.021,2.08l-22.302-0.786&#10;&#9;C9.202,59.209,0.685,48.063,0.065,41.822L0,41.351l0.005-20.859c0-11.32,9.17-20.49,20.49-20.49&#10;&#9;C31.804,0.002,40.974,9.172,40.985,20.492z" class="color c2"/><polygon fill="url(#linearGradient0a2d46bf9dc2f9b22fa746ccc05fb214)" points="40.985,58.172 41.074,58.172 40.985,58.172 40.985,58.072 " class="color c3"/><path fill="url(#linearGradient0a2d46bf9dc2f9b22fa746ccc05fb214)" d="M57.555,99.142h-0.25c-8.771-3.812-15.771-9.892-16.331-18.92v-8.222c-0.53-5.35-0.89-10.449,0-13.81V58.17&#10;&#9;h-21.97c-9.45-0.278-18.32-10.108-18.94-16.35v-0.66h0.04c0,0.14,0.02,0.3,0.03,0.46c0.01,0.061,0.02,0.13,0.03,0.19&#10;&#9;c0.31,3.12,2.66,7.08,6.13,10.35c2.27,2.13,6.94,5.74,12.72,5.91h21.97v0.1h0.09v0.052c-0.92,3.448-0.48,8.908,0,13.77v8.23&#10;&#9;c0.62,9.979,9.19,15.75,16.27,18.829L57.555,99.142z" class="color c3"/><path fill="url(#linearGradient0a2d46bf9dc2f9b22fa746ccc05fb214)" d="M40.975,80.222V58.191V58.17h-21.97C9.555,57.89,0.685,48.06,0.065,41.82v-0.66h-0.06l0.18,41.771&#10;&#9;c0,6.1,3.38,11.408,8.35,14.18c2.29,1.22,4.9,1.93,7.68,1.93l21.46,0.05l18.09,0.052h1.54&#10;&#9;C48.534,95.332,41.534,89.252,40.975,80.222z" class="color c3"/></g><g transform="translate(802.8915979441169,171.957159242356)translate(-193.15093040439314,193.15093040439302)rotate(314.6159020453137)translate(193.15093040439314,-193.15093040439302) scale(-3.893426267234968,3.893426267234968)" opacity="1"><defs class="defs"><linearGradient id="linearGradient0a797beaf6ab25a7d059f38796b7a8ab" class="linearGradient1" gradientTransform="translate(0.5,0.5) rotate(224) translate(-0.5,-0.5)" x1="50%" y1="0%" x2="50%" y2="100%"><stop id="stop1" offset="0%" class="linearGradientColor1" stop-color="#0fb9d7"/><stop id="stop2" offset="75.71428571428571%" class="linearGradientColor2" stop-color="#9ece6b"/></linearGradient><linearGradient id="linearGradient6589ff347dd44aaa462cde0c86dccdf6" class="linearGradient2" gradientTransform="translate(0.5,0.5) rotate(309) translate(-0.5,-0.5)" x1="50%" y1="0%" x2="50%" y2="100%"><stop id="stop1" offset="0%" class="linearGradientColor1" stop-color="#00EFC8"/><stop id="stop2" offset="100%" class="linearGradientColor2" stop-color="#2C94EA"/></linearGradient><linearGradient id="linearGradient602c000bd9e56d446c5ef44fe767e353" class="linearGradient3" gradientTransform="translate(0.5,0.5) rotate(309) translate(-0.5,-0.5)" x1="50%" y1="0%" x2="50%" y2="100%"><stop id="stop1" offset="0%" class="linearGradientColor1" stop-color="#00EFC8"/><stop id="stop2" offset="100%" class="linearGradientColor2" stop-color="#2C94EA"/></linearGradient></defs><path fill="url(#linearGradient0a797beaf6ab25a7d059f38796b7a8ab)" d="M99.092,78.668c0,11.312-9.17,20.48-20.48,20.48H57.172c-8.771-3.812-16.669-9.216-17.229-18.244l0.167-8.75&#10;&#9;c-0.53-5.35-1.89-10.724-1-14.084l1.508,0.107l37.994-0.002C89.922,58.177,99.092,67.347,99.092,78.668z" class="color c1"/><path fill="url(#linearGradient6589ff347dd44aaa462cde0c86dccdf6)" d="M40.985,20.492v37.68c-0.01,0.012-0.01,0.012-0.01,0.021l-0.021,2.08l-22.302-0.786&#10;&#9;C9.202,59.209,0.685,48.063,0.065,41.822L0,41.351l0.005-20.859c0-11.32,9.17-20.49,20.49-20.49&#10;&#9;C31.804,0.002,40.974,9.172,40.985,20.492z" class="color c2"/><polygon fill="url(#linearGradient602c000bd9e56d446c5ef44fe767e353)" points="40.985,58.172 41.074,58.172 40.985,58.172 40.985,58.072 " class="color c3"/><path fill="url(#linearGradient602c000bd9e56d446c5ef44fe767e353)" d="M57.555,99.142h-0.25c-8.771-3.812-15.771-9.892-16.331-18.92v-8.222c-0.53-5.35-0.89-10.449,0-13.81V58.17&#10;&#9;h-21.97c-9.45-0.278-18.32-10.108-18.94-16.35v-0.66h0.04c0,0.14,0.02,0.3,0.03,0.46c0.01,0.061,0.02,0.13,0.03,0.19&#10;&#9;c0.31,3.12,2.66,7.08,6.13,10.35c2.27,2.13,6.94,5.74,12.72,5.91h21.97v0.1h0.09v0.052c-0.92,3.448-0.48,8.908,0,13.77v8.23&#10;&#9;c0.62,9.979,9.19,15.75,16.27,18.829L57.555,99.142z" class="color c3"/><path fill="url(#linearGradient602c000bd9e56d446c5ef44fe767e353)" d="M40.975,80.222V58.191V58.17h-21.97C9.555,57.89,0.685,48.06,0.065,41.82v-0.66h-0.06l0.18,41.771&#10;&#9;c0,6.1,3.38,11.408,8.35,14.18c2.29,1.22,4.9,1.93,7.68,1.93l21.46,0.05l18.09,0.052h1.54&#10;&#9;C48.534,95.332,41.534,89.252,40.975,80.222z" class="color c3"/></g></svg>